<?xml version="1.0" standalone="no"?>
<!DOCTYPE svg PUBLIC "-//W3C//DTD SVG 20010904//EN"
 "http://www.w3.org/TR/2001/REC-SVG-20010904/DTD/svg10.dtd">
<svg version="1.0" xmlns="http://www.w3.org/2000/svg"
 width="432.000000pt" height="432.000000pt" viewBox="0 0 432.000000 432.000000"
 preserveAspectRatio="xMidYMid meet">
<metadata>
Created by potrace 1.14, written by Peter Selinger 2001-2017
</metadata>
<g transform="translate(0.000000,432.000000) scale(0.100000,-0.100000)"
fill="#000000" stroke="none">
<path d="M0 2564 l0 -1757 35 39 c19 21 35 44 35 50 0 13 44 37 90 49 14 4 41
14 60 23 27 13 70 17 185 18 83 1 204 3 270 4 93 1 129 -2 159 -15 l39 -16
-40 -42 c-23 -23 -46 -52 -52 -64 -11 -21 -18 -23 -91 -20 -68 2 -82 -1 -109
-21 -37 -27 -43 -27 -58 -2 -7 11 -27 27 -45 36 -77 40 -171 -43 -213 -190
-21 -73 -14 -144 21 -203 21 -37 24 -50 20 -130 -3 -60 -8 -90 -18 -95 -12 -8
-83 -28 -225 -65 l-63 -16 0 -73 0 -74 553 1 552 0 -115 30 c-63 16 -133 29
-155 29 -71 0 -71 5 -7 131 31 63 64 135 71 159 7 25 26 63 41 85 15 22 31 51
35 65 4 14 33 72 64 130 31 58 58 110 60 115 5 13 70 122 96 160 11 17 25 37
30 46 54 87 102 145 111 136 5 -5 -14 -45 -26 -57 -15 -15 -50 -74 -80 -135
-19 -38 -37 -72 -40 -75 -17 -16 -40 -62 -40 -79 0 -11 -4 -23 -10 -26 -5 -3
-14 -24 -20 -45 -6 -24 -17 -40 -25 -40 -9 0 -15 -10 -15 -24 0 -13 -5 -26
-12 -28 -8 -3 -6 -12 6 -29 16 -26 12 -63 -15 -112 -5 -9 -5 -17 -1 -17 5 0
20 21 33 48 13 26 36 63 51 83 15 20 28 42 28 47 0 24 115 226 118 209 2 -10
-1 -24 -7 -31 -7 -9 -7 -16 0 -23 8 -8 8 -13 0 -17 -13 -9 -15 -76 -2 -76 6 0
9 -19 8 -42 -2 -39 0 -43 21 -42 18 1 22 -4 19 -17 -3 -9 -1 -23 4 -30 4 -7 4
-19 -2 -25 -14 -17 25 -104 59 -131 21 -18 23 -23 9 -23 -14 0 -16 -6 -11 -39
4 -24 2 -41 -5 -45 -6 -4 -11 -16 -11 -27 0 -10 -5 -19 -11 -19 -6 0 -8 7 -5
16 4 10 1 14 -6 12 -7 -3 -14 -17 -16 -31 -5 -39 -22 -33 -22 8 0 23 -5 35
-13 35 -21 0 -27 -10 -18 -29 5 -9 14 -28 22 -43 11 -26 49 -40 49 -19 0 5 11
11 25 13 20 4 23 3 14 -8 -6 -8 -18 -14 -25 -14 -20 0 -18 -7 16 -43 l30 -32
1 25 c0 14 9 -4 18 -40 l17 -65 73 -3 73 -3 -5 28 c-3 15 -19 82 -35 148 -16
66 -37 170 -46 230 -17 124 -41 464 -32 473 3 3 6 -2 6 -11 0 -16 69 -140 82
-145 10 -4 143 -175 157 -200 6 -11 49 -67 96 -124 66 -79 85 -110 85 -133 0
-26 11 -40 73 -90 39 -33 92 -70 117 -83 25 -13 66 -39 91 -58 43 -31 53 -34
117 -34 46 0 72 4 76 13 5 9 7 9 12 0 8 -19 74 -17 74 2 0 8 -8 15 -19 15 -28
0 -35 57 -10 92 10 15 19 41 19 58 0 17 7 42 16 56 12 18 14 28 6 36 -8 8 1
25 34 62 24 28 44 54 44 58 0 17 28 6 38 -15 9 -20 11 -19 17 21 8 44 27 55
44 25 5 -10 11 -16 13 -13 25 30 48 71 48 84 0 9 14 30 30 46 17 16 30 37 30
47 0 9 9 27 21 39 13 14 22 38 23 65 3 48 32 79 73 79 18 0 24 4 19 15 -3 9 3
19 14 25 11 6 20 18 20 26 0 16 26 54 65 98 11 12 35 41 53 64 18 22 41 43 50
47 9 3 30 32 46 65 16 33 32 60 35 60 10 0 5 -963 -5 -985 -21 -46 -68 -105
-104 -130 -81 -56 -87 -55 358 -55 290 0 403 3 392 11 -12 8 -12 12 -2 16 7 3
18 12 25 20 7 8 22 25 35 38 17 17 25 40 29 79 4 43 10 56 22 56 20 -1 74 -47
90 -78 9 -16 18 -21 31 -17 11 3 27 2 36 -3 11 -6 27 -5 45 2 32 11 37 24 14
32 -8 4 -12 10 -9 15 12 19 33 7 48 -29 36 -81 82 -142 107 -142 18 0 19 11
19 361 l0 362 -97 -6 -97 -6 -50 42 c-224 183 -382 343 -354 358 7 4 145 10
306 14 l292 8 0 1593 0 1594 -2160 0 -2160 0 0 -1756z m2135 1265 c5 -5 23 -9
40 -9 17 0 40 -7 52 -15 31 -22 301 -44 313 -25 7 11 12 11 33 -3 13 -8 47
-20 74 -25 51 -9 148 -63 157 -88 3 -8 12 -14 20 -14 17 0 102 -110 123 -160
9 -19 24 -54 34 -78 11 -23 19 -48 19 -55 0 -7 9 -28 19 -48 16 -30 17 -37 5
-54 -20 -27 -17 -88 6 -133 12 -22 22 -62 23 -91 1 -28 5 -51 10 -51 4 0 7
-14 7 -32 0 -23 8 -38 26 -53 29 -23 36 -50 59 -215 23 -170 25 -180 50 -285
14 -55 31 -139 39 -187 8 -48 21 -97 28 -110 12 -21 13 -18 16 40 3 71 14 76
44 22 23 -44 23 -70 -1 -128 -32 -78 -35 -102 -11 -102 13 0 22 9 26 27 7 28
54 74 66 66 5 -2 8 -15 8 -29 0 -17 8 -27 26 -35 15 -5 28 -8 30 -6 2 2 8 28
14 57 11 58 6 90 -14 90 -13 0 -27 26 -41 77 -8 28 -70 89 -108 104 -23 10
-30 10 -37 -2 -14 -21 -24 -3 -28 49 -2 26 -6 69 -9 95 l-5 48 65 63 c83 79
117 95 153 71 36 -23 53 -71 71 -194 12 -81 13 -122 6 -180 -6 -42 -8 -145 -6
-228 6 -168 2 -190 -51 -257 -53 -65 -109 -83 -148 -46 -27 25 -49 11 -31 -19
7 -11 8 -22 3 -27 -5 -5 -14 -43 -20 -84 -15 -95 -48 -206 -67 -221 -8 -7 -23
-30 -34 -51 -11 -21 -30 -43 -42 -48 -32 -13 -80 -68 -73 -85 3 -8 -3 -19 -14
-25 -28 -15 -40 -12 -40 8 0 30 -31 21 -47 -14 -9 -18 -24 -35 -34 -37 -13 -4
-19 -14 -19 -35 0 -17 -4 -34 -10 -37 -5 -3 -10 -14 -10 -24 0 -10 -7 -24 -15
-31 -13 -11 -15 -7 -15 29 0 35 -4 43 -25 53 -25 11 -30 33 -8 33 6 0 15 3 19
7 4 5 18 8 31 8 42 0 57 25 45 73 -5 24 -10 33 -11 20 -1 -29 -39 -51 -47 -28
-11 28 -26 16 -19 -16 8 -35 -4 -49 -42 -49 -19 0 -22 -4 -18 -27 6 -30 -23
-79 -32 -55 -7 19 -23 14 -23 -8 0 -13 -10 -24 -27 -31 -16 -5 -35 -19 -44
-31 -11 -14 -21 -18 -30 -12 -22 13 -111 15 -141 3 -16 -6 -28 -19 -28 -29 0
-22 -40 -37 -100 -39 -25 -1 -55 -9 -67 -17 -14 -9 -35 -12 -57 -8 -20 3 -44
0 -54 -5 -35 -19 -141 -22 -166 -6 -12 8 -43 18 -69 21 -41 6 -47 4 -47 -12 0
-16 -2 -15 -21 5 -15 16 -29 21 -46 18 -13 -2 -21 -2 -18 1 2 3 -11 24 -30 48
-19 23 -35 49 -35 57 0 9 -12 29 -26 46 -14 17 -24 37 -21 44 3 7 -6 35 -18
63 -13 27 -24 55 -24 62 -1 21 -69 82 -90 82 -11 0 -41 10 -66 22 l-46 23 -17
-22 c-13 -16 -24 -20 -44 -16 -32 6 -48 23 -82 87 -14 27 -32 54 -40 60 -8 6
-16 27 -19 46 -3 19 -10 54 -15 78 -6 28 -6 45 1 49 6 4 3 11 -8 20 -13 9 -16
16 -8 24 6 6 7 24 2 47 -4 20 -13 75 -19 122 -7 47 -14 92 -17 100 -9 24 -12
57 -19 192 l-6 127 -40 26 c-34 22 -49 26 -94 23 l-54 -3 0 33 c0 47 38 82 88
82 36 0 41 -3 65 -49 15 -27 27 -59 27 -72 0 -12 3 -19 6 -16 4 4 11 113 15
243 6 163 13 241 21 251 14 17 16 101 7 240 -10 131 29 296 91 388 15 22 39
58 53 80 38 57 96 117 108 110 5 -4 8 -1 7 6 -2 7 8 18 22 25 89 46 164 75
187 73 32 -2 112 31 132 55 7 9 20 16 27 16 8 0 14 7 14 15 0 8 5 15 10 15 6
0 24 10 39 21 16 12 33 19 39 15 5 -3 17 3 26 13 15 16 21 17 53 6 21 -7 44
-10 53 -7 13 6 12 7 -2 10 -10 2 -18 8 -18 12 0 11 61 1 75 -11z m-1095 -1726
c0 -12 8 -29 17 -39 16 -15 18 -15 39 11 31 39 47 25 42 -37 -5 -50 7 -103 30
-131 16 -18 47 -188 57 -306 9 -98 3 -106 -61 -84 -88 30 -98 58 -109 298 -4
80 -14 153 -25 190 -17 58 -23 98 -21 139 1 20 1 20 16 0 8 -10 15 -29 15 -41z
m2400 -63 c-18 -11 -24 -6 -16 16 5 14 9 15 19 5 9 -9 9 -14 -3 -21z m165
-840 c3 -5 2 -10 -4 -10 -5 0 -13 5 -16 10 -3 6 -2 10 4 10 5 0 13 -4 16 -10z
m71 -58 c-4 -3 -14 2 -24 12 -16 18 -16 18 6 6 13 -6 21 -14 18 -18z m-849
-139 c4 -10 -2 -23 -18 -35 -17 -15 -25 -16 -28 -7 -2 7 1 15 8 17 6 2 11 12
11 23 0 23 18 25 27 2z m-870 -159 c-3 -3 -12 -4 -19 -1 -8 3 -5 6 6 6 11 1
17 -2 13 -5z m-1487 -31 c16 -9 34 -26 40 -39 13 -23 -1 -52 -61 -119 -15 -16
-50 -65 -79 -108 -28 -42 -55 -75 -60 -72 -14 8 -30 74 -30 120 0 86 45 180
103 215 39 24 51 25 87 3z m910 -93 c0 -5 -7 -7 -15 -4 -8 4 -12 10 -9 15 6
11 24 2 24 -11z m2640 -215 c34 -60 62 -118 63 -127 1 -10 5 -18 9 -18 9 0 29
-72 22 -79 -3 -3 -9 1 -14 9 -8 13 -10 12 -10 -2 0 -11 -5 -15 -15 -12 -8 3
-14 9 -13 12 3 26 -4 52 -12 47 -5 -3 -10 3 -10 14 0 11 -9 26 -19 34 -14 9
-23 33 -30 76 -6 35 -17 71 -25 80 -14 16 -29 98 -15 83 4 -4 35 -56 69 -117z
m-24 -222 c-10 -10 -19 5 -10 18 6 11 8 11 12 0 2 -7 1 -15 -2 -18z m124 -103
c0 -5 -2 -10 -4 -10 -3 0 -8 5 -11 10 -3 6 -1 10 4 10 6 0 11 -4 11 -10z"/>
<path d="M2538 2835 c-14 -14 -68 -29 -173 -51 -129 -27 -145 -33 -165 -67
-12 -18 -20 -50 -20 -74 0 -34 4 -43 23 -49 12 -5 25 -7 29 -6 12 3 29 -37 28
-61 -1 -12 -2 -54 -1 -93 l1 -71 48 -21 c26 -11 67 -23 92 -27 25 -3 65 -12
90 -20 70 -22 148 -37 158 -31 5 3 20 7 35 10 19 3 27 0 27 -10 0 -9 11 -14
30 -14 22 0 28 4 24 15 -4 8 -10 15 -15 15 -4 0 -6 6 -4 13 5 11 -95 57 -124
57 -7 0 -11 6 -8 13 2 6 10 11 17 9 12 -3 61 16 102 38 24 13 114 13 139 0 16
-9 21 -7 28 12 15 41 5 55 -87 129 -11 10 -30 20 -43 24 -13 4 -28 11 -34 15
-5 4 -27 10 -48 13 -40 6 -97 28 -97 37 0 21 151 50 172 33 7 -6 34 -16 60
-23 26 -7 53 -19 59 -26 7 -8 31 -14 60 -14 l48 0 -6 38 c-9 58 -47 90 -203
168 -54 26 -220 40 -242 19z"/>
<path d="M1825 2745 c-8 -13 -17 -13 -49 -4 -32 9 -250 7 -320 -3 -10 -1 -37
-18 -60 -38 -22 -20 -55 -46 -73 -58 -38 -27 -77 -87 -67 -104 4 -6 6 -32 5
-57 -3 -70 8 -121 27 -121 17 1 62 82 62 111 0 8 18 33 40 56 44 46 75 56 170
57 52 1 140 -28 140 -45 0 -9 -33 -16 -115 -25 -113 -12 -224 -75 -225 -126 0
-9 -5 -28 -11 -42 -9 -20 -9 -29 1 -41 11 -14 11 -18 1 -25 -9 -5 -10 -10 -2
-14 6 -4 27 5 47 21 34 25 43 27 103 24 36 -2 83 -4 104 -5 20 0 37 -5 37 -11
0 -17 -61 -35 -123 -35 -45 0 -58 -4 -67 -19 -31 -59 172 -97 262 -50 15 8 57
29 93 47 74 38 86 66 34 77 -42 10 -30 30 18 30 28 0 50 8 74 26 33 26 34 27
41 130 6 90 4 109 -12 144 -23 49 -38 68 -67 83 -16 9 -23 9 -26 -1 -3 -6 -6
-2 -6 11 -1 25 -21 29 -36 7z m-180 -405 c-3 -5 -15 -10 -26 -10 -10 0 -19 5
-19 10 0 6 12 10 26 10 14 0 23 -4 19 -10z m141 -18 c-4 -3 -25 -7 -47 -8 -43
-2 -44 1 -7 21 23 12 67 1 54 -13z"/>
<path d="M3413 2509 c-18 -5 -35 -14 -38 -19 -3 -5 6 -31 20 -57 32 -62 69
-163 85 -236 21 -93 35 -46 35 120 0 128 -2 144 -21 170 -24 32 -36 35 -81 22z"/>
<path d="M2079 1879 c-7 -4 -50 -6 -94 -4 l-80 5 -39 -39 -38 -40 25 -23 c14
-13 33 -42 41 -64 9 -21 34 -57 56 -78 38 -37 51 -66 30 -66 -5 0 -10 -12 -10
-27 0 -21 3 -24 12 -15 21 21 57 13 128 -32 65 -40 69 -44 52 -59 -25 -22 -42
-24 -90 -8 -38 13 -51 13 -115 -2 -95 -23 -112 -22 -131 7 -8 14 -32 37 -51
52 -33 25 -37 26 -54 10 -9 -9 -25 -16 -33 -16 -9 0 -18 -5 -20 -11 -2 -5 -11
-7 -22 -3 -13 5 -16 13 -11 33 17 69 17 91 0 97 -11 5 -27 -4 -48 -25 -46 -46
-43 -106 9 -189 l39 -61 65 -11 c45 -7 76 -7 100 0 45 13 207 13 215 0 3 -5
20 -10 36 -10 26 0 99 -24 99 -32 0 -2 -40 -3 -88 -3 -71 0 -92 -4 -106 -18
-10 -9 -26 -17 -37 -17 -29 0 -23 -26 11 -52 17 -12 30 -27 30 -32 1 -6 10
-22 20 -35 20 -23 23 -23 239 -27 121 -2 223 -4 228 -5 22 -4 33 3 33 19 0 20
-35 62 -51 62 -6 0 -8 4 -4 9 3 6 -2 14 -11 19 -12 7 -15 17 -11 39 6 32 -3
53 -24 56 -34 6 -40 18 -17 36 41 32 167 91 194 91 32 0 133 -77 134 -102 0
-10 15 -25 33 -34 44 -23 58 -35 51 -46 -3 -5 -11 -2 -18 7 -9 13 -17 14 -36
6 -25 -10 -25 -10 -3 -17 18 -5 21 -12 18 -35 -3 -16 -7 -43 -10 -60 -4 -25
-2 -30 13 -27 9 2 18 13 20 26 2 14 10 22 24 22 16 0 19 5 16 25 -3 16 1 30
13 41 16 14 17 20 6 32 -6 8 -13 29 -14 46 -1 17 -5 48 -9 68 -3 21 -1 52 5
70 8 21 8 35 1 42 -5 5 -10 20 -10 33 0 19 -5 23 -34 23 -29 0 -33 -3 -29 -20
7 -25 -5 -26 -23 -2 -12 14 -15 15 -23 3 -8 -12 -13 -9 -28 17 -11 20 -26 32
-39 32 -11 0 -29 9 -39 20 -16 18 -27 19 -96 14 -73 -5 -79 -4 -79 13 0 11 5
24 12 31 9 9 4 13 -23 19 -19 4 -36 7 -39 6 -3 0 -20 -4 -37 -8 -35 -7 -47 9
-14 18 11 2 21 15 23 28 3 23 64 63 80 52 12 -7 42 63 34 82 -8 23 -30 14 -34
-14 -2 -12 -9 -21 -15 -18 -7 2 -37 13 -67 23 -30 11 -58 23 -61 27 -12 16
-72 -29 -94 -71 l-23 -44 -9 59 c-4 32 -7 63 -7 70 2 15 -30 23 -47 12z m226
-389 c9 7 27 7 58 0 25 -5 59 -7 75 -4 29 6 103 -28 85 -39 -5 -3 -15 -2 -23
4 -21 13 -53 11 -44 -2 7 -12 -74 -9 -194 7 -50 6 -52 8 -36 25 13 14 21 16
41 8 17 -6 30 -6 38 1z m435 -31 c0 -5 -9 -9 -20 -9 -22 0 -27 16 -7 23 15 5
27 -1 27 -14z"/>
<path d="M2670 1588 c0 -18 18 -34 28 -24 3 4 -2 14 -11 23 -16 16 -17 16 -17
1z"/>
<path d="M1910 1565 c0 -8 5 -15 10 -15 6 0 10 7 10 15 0 8 -4 15 -10 15 -5 0
-10 -7 -10 -15z"/>
<path d="M1180 561 c0 -12 5 -21 10 -21 6 0 10 6 10 14 0 8 -4 18 -10 21 -5 3
-10 -3 -10 -14z"/>
<path d="M4120 93 c0 -10 89 -98 94 -92 2 2 -6 24 -18 49 -16 35 -27 46 -49
48 -15 2 -27 0 -27 -5z"/>
<path d="M1306 43 c10 -42 12 -43 62 -43 l47 1 -37 34 c-21 19 -47 35 -58 35
-17 0 -19 -4 -14 -27z"/>
<path d="M3888 53 c7 -3 16 -2 19 1 4 3 -2 6 -13 5 -11 0 -14 -3 -6 -6z"/>
</g>
</svg>
