<svg xmlns="http://www.w3.org/2000/svg" viewBox="0 0 32 32"><defs><linearGradient id="a" x1="14.941" y1="27.799" x2="4.952" y2="10.496" gradientUnits="userSpaceOnUse"><stop offset="0" stop-color="#0c9d8c"/><stop offset="1" stop-color="#047769"/></linearGradient><linearGradient id="e" x1="12.434" y1="29.112" x2="24.06" y2="8.975" gradientUnits="userSpaceOnUse"><stop offset="0" stop-color="#0e4d44"/><stop offset="1" stop-color="#0b5b50"/></linearGradient><linearGradient id="g" x1="20.853" y1="19.189" x2="12.717" y2="5.098" gradientUnits="userSpaceOnUse"><stop offset="0" stop-color="#24cdb9"/><stop offset="1" stop-color="#30e5d0"/></linearGradient><linearGradient id="h" x1="11.104" y1="15.548" x2="4.29" y2="3.747" gradientUnits="userSpaceOnUse"><stop offset="0" stop-color="#0c9d8c"/><stop offset="1" stop-color="#24cdb9"/></linearGradient><linearGradient id="i" x1="6284.022" y1="18.848" x2="6293.809" y2="1.897" gradientTransform="matrix(-1 0 0 1 6314 0)" gradientUnits="userSpaceOnUse"><stop offset="0" stop-color="#047769"/><stop offset="1" stop-color="#0c9d8c"/></linearGradient><clipPath id="b"><path d="M15.994 21.994L15 17.667a7.513 7.513 0 01-2.2-5.313l-2.8-1.02-1.931-.702c-9.403 0-6.177 7.079-4.364 9.188l1.792 1.791.249.246c4.476 4.477 9.879 3.046 10.248.137z" fill="none"/></clipPath><clipPath id="f"><path d="M29.07 12.079a5.344 5.344 0 00-1.575-1.09 12.351 12.351 0 00-3.372-.594L22 11.333l-1.667 1.445a7.513 7.513 0 01-2.2 5.312L16 22l-.006-.006a7.503 7.503 0 01-10.248-.136l7.935 7.848a3.298 3.298 0 004.638 0l9.92-9.812c.684-.896 2.394-2.829 2.394-4.044a5.317 5.317 0 00-1.563-3.771z" fill="none"/></clipPath><filter id="c"><feGaussianBlur stdDeviation="2.5"/></filter><filter id="d"><feGaussianBlur stdDeviation=".3"/></filter></defs><path d="M15.994 21.994L15 17.667a7.513 7.513 0 01-2.2-5.313l-2.8-1.02-1.931-.702c-9.403 0-6.177 7.079-4.364 9.188l1.792 1.791.249.246c4.476 4.477 9.879 3.046 10.248.137z" fill="url(#a)"/><g clip-path="url(#b)"><g opacity=".4" filter="url(#c)"><path d="M16 6.667c0 2.58-2.684 4.666-6 4.666H8a5.326 5.326 0 00-4.295 8.487L2.5 18.613A9.962 9.962 0 010 12a10.101 10.101 0 01.077-1.243A10.002 10.002 0 0110 2c3.316 0 6 2.087 6 4.667"/></g><g opacity=".3" filter="url(#d)"><path d="M16 6.667c0 2.58-2.684 4.666-6 4.666H8a5.326 5.326 0 00-4.295 8.487L2.5 18.613A9.962 9.962 0 010 12a10.101 10.101 0 01.077-1.243A10.002 10.002 0 0110 2c3.316 0 6 2.087 6 4.667"/></g><g opacity=".24" filter="url(#c)"><path d="M29.07 12.079a5.344 5.344 0 00-1.575-1.09 12.351 12.351 0 00-3.372-.594L22 11.333l-1.667 1.445a7.513 7.513 0 01-2.2 5.312L16 22l-.006-.006a7.503 7.503 0 01-10.248-.136l7.935 7.848a3.298 3.298 0 004.638 0l9.92-9.812c.684-.896 2.394-2.829 2.394-4.044a5.317 5.317 0 00-1.563-3.771z"/></g><g opacity=".2" filter="url(#d)"><path d="M29.07 12.079a5.344 5.344 0 00-1.575-1.09 12.351 12.351 0 00-3.372-.594L22 11.333l-1.667 1.445a7.513 7.513 0 01-2.2 5.312L16 22l-.006-.006a7.503 7.503 0 01-10.248-.136l7.935 7.848a3.298 3.298 0 004.638 0l9.92-9.812c.684-.896 2.394-2.829 2.394-4.044a5.317 5.317 0 00-1.563-3.771z"/></g></g><path d="M29.07 12.079a5.344 5.344 0 00-1.575-1.09 12.351 12.351 0 00-3.372-.594L22 11.333l-1.667 1.445a7.513 7.513 0 01-2.2 5.312L16 22l-.006-.006a7.503 7.503 0 01-10.248-.136l7.935 7.848a3.298 3.298 0 004.638 0l9.92-9.812c.684-.896 2.394-2.829 2.394-4.044a5.317 5.317 0 00-1.563-3.771z" fill="url(#e)"/><g clip-path="url(#f)"><g opacity=".4" filter="url(#c)"><path d="M16 6.667c0 2.58 2.684 4.666 6 4.666h2a5.326 5.326 0 014.295 8.487l1.206-1.207A9.962 9.962 0 0032 12a10.101 10.101 0 00-.077-1.243A10.002 10.002 0 0022 2c-3.316 0-6 2.087-6 4.667"/></g><g opacity=".3" filter="url(#d)"><path d="M16 6.667c0 2.58 2.684 4.666 6 4.666h2a5.326 5.326 0 014.295 8.487l1.206-1.207A9.962 9.962 0 0032 12a10.101 10.101 0 00-.077-1.243A10.002 10.002 0 0022 2c-3.316 0-6 2.087-6 4.667"/></g></g><path d="M22 11.333v1.555a7.513 7.513 0 01-2.2 5.313l-3.552 3.55q-.124.125-.254.243l-3.793-3.793A7.513 7.513 0 0110 12.888V6.667h12z" fill="url(#g)"/><path d="M16 6.667c0 2.58-2.684 4.666-6 4.666H8a5.326 5.326 0 00-4.295 8.487L2.5 18.613A9.962 9.962 0 010 12a10.101 10.101 0 01.077-1.243A10.002 10.002 0 0110 2c3.316 0 6 2.087 6 4.667" fill="url(#h)"/><path d="M16 6.667c0 2.58 2.684 4.666 6 4.666h2a5.326 5.326 0 014.295 8.487l1.206-1.207A9.962 9.962 0 0032 12a10.101 10.101 0 00-.077-1.243A10.002 10.002 0 0022 2c-3.316 0-6 2.087-6 4.667" fill="url(#i)"/><path fill="none" d="M0 0h32v32H0z"/></svg>
